<?xml version="1.0" standalone="no"?>
<!DOCTYPE svg PUBLIC "-//W3C//DTD SVG 20010904//EN"
 "http://www.w3.org/TR/2001/REC-SVG-20010904/DTD/svg10.dtd">
<svg version="1.0" xmlns="http://www.w3.org/2000/svg"
 width="512.000000pt" height="512.000000pt" viewBox="0 0 512.000000 512.000000"
 preserveAspectRatio="xMidYMid meet">
<metadata>
Created by potrace 1.14, written by Peter Selinger 2001-2017
</metadata>
<g transform="translate(0.000000,512.000000) scale(0.100000,-0.100000)"
fill="#000000" stroke="none">
<path d="M1296 5097 c-14 -15 -26 -34 -26 -45 0 -23 29 -113 43 -129 15 -20 3
-16 -65 21 -103 56 -160 70 -278 70 -128 1 -214 -23 -310 -85 -138 -89 -228
-220 -267 -389 -7 -30 -7 -176 0 -223 19 -125 80 -252 166 -349 28 -31 51 -60
51 -65 0 -5 -12 -20 -26 -34 -41 -38 -186 -234 -247 -334 -110 -182 -193 -371
-252 -576 -36 -125 -55 -217 -75 -369 -11 -85 -5 -403 9 -505 82 -574 370
-1148 792 -1578 72 -74 97 -82 143 -46 46 36 37 73 -40 154 -171 181 -357 436
-463 635 -144 272 -245 573 -277 825 -3 28 -8 59 -11 70 -9 37 -11 380 -3 435
5 30 11 74 14 98 29 222 158 565 297 788 53 86 165 237 222 299 l43 48 65 -44
66 -44 -34 -50 c-105 -154 -197 -318 -256 -455 -39 -93 -94 -274 -103 -342 -3
-24 -10 -63 -14 -87 -15 -84 -10 -340 9 -446 81 -446 348 -903 793 -1357 81
-83 99 -81 203 20 128 125 165 169 165 196 0 34 -30 66 -68 72 -31 5 -40 -1
-121 -81 l-88 -86 -73 78 c-341 369 -578 781 -656 1143 -26 117 -26 408 -1
530 48 232 143 443 320 707 111 166 123 197 89 231 -9 9 -54 39 -100 66 -45
28 -82 53 -82 57 0 4 21 24 48 45 26 21 55 46 64 54 9 8 64 47 122 85 154 103
155 115 16 265 -47 51 -86 98 -88 104 -2 9 29 17 95 25 54 7 112 14 128 17
284 40 298 42 318 62 11 12 20 33 19 49 0 16 -28 100 -61 187 l-60 158 207 -6
c272 -9 352 -15 497 -42 145 -27 246 -64 329 -120 28 -19 62 -34 76 -34 14 0
48 15 75 33 98 65 214 103 397 131 135 21 184 24 430 32 l207 6 -40 -103 c-95
-248 -97 -259 -56 -295 22 -19 76 -29 247 -49 40 -5 198 -27 215 -30 11 -2 32
-4 48 -4 15 -1 27 -6 27 -12 0 -6 -40 -55 -90 -109 -49 -53 -94 -108 -98 -121
-16 -43 4 -71 96 -131 99 -65 252 -184 252 -196 0 -4 -37 -30 -82 -58 -46 -27
-91 -57 -100 -66 -34 -34 -22 -65 86 -227 198 -297 285 -497 330 -756 14 -80
16 -391 2 -445 -3 -14 -17 -71 -31 -128 -30 -116 -24 -148 28 -166 43 -15 78
9 100 68 74 200 86 554 28 807 -50 217 -162 455 -334 709 l-44 65 65 42 c77
51 66 56 172 -77 132 -166 254 -375 331 -566 31 -77 95 -284 104 -334 2 -14
12 -68 21 -120 12 -66 18 -150 18 -275 1 -157 -9 -318 -19 -336 -2 -3 -7 -28
-11 -55 -7 -56 -53 -239 -82 -330 -108 -334 -338 -723 -588 -995 l-52 -56 -98
98 c-100 100 -130 116 -169 96 -11 -6 -138 -128 -282 -272 l-261 -263 -54 55
c-56 57 -82 69 -123 59 -28 -7 -53 -50 -47 -83 3 -22 143 -170 187 -199 48
-31 68 -16 344 261 145 146 266 265 270 265 3 0 49 -43 101 -96 95 -95 121
-111 159 -99 23 7 167 161 266 285 71 88 210 295 264 390 183 326 301 681 338
1023 14 125 8 442 -10 548 -105 615 -455 1179 -941 1517 l-47 33 27 32 c15 17
63 72 107 120 107 116 110 122 103 161 -9 45 -35 58 -146 71 -25 3 -58 8 -75
10 -105 16 -127 19 -226 30 -31 4 -71 10 -89 14 l-33 6 63 53 c136 114 272
153 410 118 237 -61 370 -276 325 -524 -7 -37 -20 -87 -29 -111 -21 -58 -20
-83 4 -109 28 -30 74 -29 105 2 13 13 33 54 45 92 90 292 -1 568 -238 722
-177 114 -422 118 -602 10 l-55 -34 25 72 c28 82 21 116 -27 135 -27 10 -510
6 -623 -6 -66 -7 -201 -24 -230 -30 -143 -27 -232 -55 -327 -103 l-62 -32 -83
40 c-106 50 -223 83 -368 104 -167 23 -187 25 -502 32 l-286 6 -26 -25z m-226
-242 c25 -7 65 -22 90 -35 50 -25 170 -117 170 -130 0 -9 -28 -15 -190 -35
-69 -9 -136 -18 -150 -20 -14 -2 -52 -7 -85 -10 -87 -10 -123 -30 -131 -70 -7
-40 -4 -46 103 -162 44 -48 92 -102 107 -120 l26 -31 -112 -85 c-62 -47 -124
-97 -137 -111 -14 -14 -30 -26 -36 -26 -15 0 -70 63 -110 125 -46 72 -75 169
-79 268 -13 288 260 513 534 442z"/>
<path d="M1810 4011 c-232 -75 -665 -632 -750 -966 -37 -145 -26 -207 39 -220
22 -4 81 21 81 35 0 26 24 145 37 185 82 260 426 715 611 809 28 14 42 15 95
6 60 -11 286 -83 364 -116 21 -8 74 -30 118 -48 l80 -32 0 -277 c0 -271 1
-277 22 -299 29 -28 77 -28 106 0 21 22 22 28 22 299 l0 277 120 49 c162 65
366 133 443 147 58 10 67 9 103 -10 119 -61 365 -346 490 -565 43 -75 99 -194
99 -209 0 -8 4 -17 9 -20 16 -10 34 -126 29 -193 -3 -41 -21 -114 -44 -183
-43 -126 -201 -449 -308 -629 l-68 -114 -29 74 c-37 96 -81 181 -192 366 -88
148 -101 162 -150 163 -25 0 -67 -44 -67 -70 0 -12 37 -83 82 -158 152 -256
205 -373 228 -501 19 -106 -1 -214 -55 -308 -37 -62 -121 -143 -151 -144 -13
-1 -30 -2 -36 -3 -58 -8 -435 93 -484 129 -16 11 -19 28 -19 121 l0 107 95 48
c253 127 348 291 218 376 -69 45 -197 55 -335 27 -46 -10 -70 -11 -90 -3 -52
20 -223 23 -284 6 -52 -16 -118 -65 -120 -91 0 -6 -2 -22 -5 -35 -7 -38 33
-107 92 -159 54 -48 215 -147 257 -157 21 -6 22 -11 22 -121 l0 -116 -40 -15
c-112 -41 -256 -84 -329 -98 -141 -25 -163 -25 -204 2 -104 70 -171 197 -177
336 -6 144 48 288 215 567 50 85 94 166 96 180 8 38 -29 80 -70 80 -43 0 -56
-15 -162 -195 -97 -164 -133 -234 -174 -339 l-27 -68 -52 85 c-99 164 -214
385 -276 531 -33 76 -43 90 -73 103 -30 12 -37 12 -58 -2 -42 -27 -48 -61 -22
-124 67 -169 189 -402 342 -654 59 -99 109 -191 111 -205 24 -186 118 -343
255 -428 48 -29 59 -42 70 -77 76 -260 329 -409 680 -401 312 8 527 142 615
385 19 54 27 63 89 104 l69 45 185 -185 c230 -229 217 -225 335 -102 66 68
132 143 256 292 136 164 351 511 351 567 0 35 -28 67 -65 74 -38 7 -72 -24
-105 -93 -82 -174 -295 -468 -493 -680 l-60 -64 -157 156 -157 157 28 57 c15
31 36 97 46 147 14 66 28 104 56 148 152 234 336 582 412 776 119 305 115 440
-23 712 -195 383 -528 742 -700 753 -90 6 -284 -48 -560 -158 l-152 -60 -168
66 c-321 126 -505 173 -582 148z m682 -1998 c58 -12 78 -12 136 0 83 17 198
22 206 9 12 -20 -227 -172 -271 -172 -50 0 -283 144 -283 175 0 11 140 2 212
-12z m158 -690 c127 -49 363 -113 416 -113 2 0 -9 -26 -25 -57 -57 -113 -162
-189 -303 -219 -76 -17 -233 -22 -306 -11 -168 26 -290 104 -353 229 l-29 58
22 4 c176 33 339 80 448 129 19 8 42 13 50 10 8 -3 44 -16 80 -30z"/>
<path d="M1782 3130 c-27 -11 -44 -52 -36 -85 3 -12 59 -75 123 -139 127 -125
145 -134 195 -95 18 15 26 30 26 53 0 28 -15 48 -112 145 -143 142 -143 142
-196 121z"/>
<path d="M3270 3130 c-8 -5 -66 -60 -127 -121 -96 -96 -113 -117 -113 -144 0
-39 36 -75 75 -75 23 0 51 23 149 119 110 110 120 122 120 156 0 58 -58 94
-104 65z"/>
<path d="M1113 819 c-26 -10 -43 -38 -43 -75 0 -22 55 -82 303 -330 194 -194
313 -305 330 -309 38 -10 55 3 232 180 l154 155 213 -214 c179 -180 219 -215
250 -221 l37 -7 249 249 c137 136 254 258 261 270 9 18 8 30 -3 57 -16 38 -48
53 -88 42 -13 -3 -117 -100 -232 -216 -115 -116 -213 -209 -218 -208 -5 2
-105 99 -222 216 -192 191 -217 212 -247 212 -29 0 -51 -18 -202 -169 l-170
-168 -268 268 c-148 148 -272 269 -276 270 -5 0 -15 2 -23 3 -8 2 -25 0 -37
-5z"/>
</g>
</svg>
